<svg xmlns="http://www.w3.org/2000/svg"
     width="100%"
     height="2700"
     viewBox="0 0 1200 2700">

<style>

.title{
font-family:Arial,Helvetica,sans-serif;
font-size:42px;
font-weight:bold;
}

.command{
font-family:Arial,Helvetica,sans-serif;
font-size:28px;
font-weight:bold;
}

.label{
font-family:Arial,Helvetica,sans-serif;
font-size:16px;
}

.box{
fill:none;
stroke:black;
stroke-width:2;
}

.arrow{
stroke:black;
stroke-width:3;
marker-end:url(#arrow);
}

.line{
stroke:black;
stroke-width:3;
}

</style>

<defs>
<marker id="arrow" markerWidth="10" markerHeight="10"
refX="10" refY="5" orient="auto">
<polygon points="0 0,10 5,0 10" fill="black"/>
</marker>
</defs>

<text class="title" x="500" y="60">SOC CLI</text>

<!-- INIT -->

<g id="init">

<rect class="box" x="40" y="100" width="1120" height="120"/>

<text class="command" x="70" y="170">INIT</text>

<line class="arrow" x1="200" y1="160" x2="360" y2="160"/>
<text class="label" x="250" y="140">create</text>

<rect class="box" x="380" y="120" width="130" height="80"/>
<text class="label" x="395" y="165">user_config.sh</text>

<rect class="box" x="530" y="120" width="130" height="80"/>
<text class="label" x="535" y="165">source_config.sh</text>

<rect class="box" x="680" y="120" width="130" height="80"/>
<text class="label" x="685" y="165">system_config.sh</text>

<rect class="box" x="830" y="120" width="130" height="80"/>
<text class="label" x="860" y="165">emails.txt</text>

</g>

<!-- PRECHECK -->

<g id="precheck">

<rect class="box" x="40" y="240" width="1120" height="120"/>

<text class="command" x="70" y="310">PRECHECK</text>

<line class="arrow" x1="240" y1="300" x2="360" y2="300"/>
<text class="label" x="260" y="280">validate</text>

<rect class="box" x="380" y="260" width="150" height="80"/>
<text class="label" x="400" y="305">user_config.sh</text>

<rect class="box" x="550" y="260" width="150" height="80"/>
<text class="label" x="565" y="305">source_config.sh</text>

</g>

<!-- SYNC / UNSYNC -->

<g id="sync">

  <rect class="box" x="40" y="380" width="1120" height="355"/>

  <!-- SYNC -->
  <g id="sync-command">

    <text class="command" x="70" y="520">SYNC</text>

    <rect class="box" x="260" y="420" width="150" height="80"/>
    <text class="label" x="290" y="465">source repos</text>

    <line class="arrow" x1="420" y1="460" x2="550" y2="460"/>
    <text class="label" x="450" y="440">copy</text>

    <rect class="box" x="570" y="420" width="150" height="80"/>
    <text class="label" x="600" y="465">target repos</text>

    <rect class="box" x="260" y="510" width="150" height="80"/>
    <text class="label" x="285" y="555">source project</text>

    <line class="arrow" x1="420" y1="550" x2="550" y2="550"/>
    <text class="label" x="450" y="530">copy</text>

    <rect class="box" x="570" y="510" width="150" height="80"/>
    <text class="label" x="600" y="555">target project</text>

  </g>

  <!-- UNSYNC -->
  <g id="unsync-command" transform="translate(0,20)">

  <text class="command" x="70" y="655">UNSYNC</text>

  <!-- delete repos and project-->
  <line class="arrow" x1="240" y1="650" x2="380" y2="650"/>
  <text class="label" x="270" y="630">delete</text>

  <rect class="box" x="400" y="620" width="150" height="80"/>
  <text class="label" x="430" y="660">target repos</text>

  <rect class="box" x="580" y="620" width="150" height="80"/>
  <text class="label" x="610" y="660">target project</text>

  </g>
</g>

<!-- OPEN / CLOSE -->

<g id="open-close" transform="translate(0,760)">

  <rect class="box" x="40" y="0" width="1120" height="580"/>

  <!-- OPEN -->
  <g id="open-command">

  <text class="command" x="70" y="90">OPEN</text>

  <line class="arrow" x1="200" y1="80" x2="360" y2="80"/>
  <text class="label" x="230" y="60">create &amp; configure</text>

  <!-- Team -->
  <rect class="box" x="380" y="30" width="260" height="140"/>
  <text class="label" x="410" y="55">Team</text>

  <!-- Project inside Team (top-right) -->
  <rect class="box" x="480" y="40" width="150" height="80"/>
  <text class="label" x="550" y="80">Project</text>

  </g>

  <!-- CLOSE -->

  <g id="close-command" transform="translate(0,160)">

  <text class="command" x="70" y="210">CLOSE</text>

  <!-- pozioma strzałka z CLOSE do pionowej kreski -->
  <line class="arrow" x1="190" y1="200" x2="250" y2="200"/>

  <!-- pionowa kreska rozwidlająca -->
  <line class="line" x1="250" y1="80" x2="250" y2="360"/>

  <!-- archive project -->
  <line class="arrow" x1="250" y1="80" x2="360" y2="80"/>
  <text class="label" x="260" y="60">archive</text>

  <rect class="box" x="380" y="40" width="150" height="80"/>
  <text class="label" x="420" y="85">Project</text>

  <!-- delete team -->
  <line class="arrow" x1="250" y1="200" x2="360" y2="200"/>
  <text class="label" x="260" y="180">delete?</text>

  <!-- Team -->
  <rect class="box" x="380" y="150" width="260" height="140"/>
  <text class="label" x="410" y="175">Team</text>

  <!-- Project inside Team (top-right) -->
  <rect class="box" x="480" y="160" width="150" height="80"/>
  <text class="label" x="550" y="200">Project</text>

  <!-- remove students -->
  <line class="arrow" x1="250" y1="360" x2="360" y2="360"/>
  <text class="label" x="250" y="340">remove from org?</text>

  <rect class="box" x="380" y="320" width="150" height="80"/>
  <text class="label" x="415" y="365">Students</text>

  </g>
</g>

<!-- INVITE / DISINVITE -->

<g id="invite-disinvite" transform="translate(0,1360)">

  <rect class="box" x="40" y="0" width="1120" height="220"/>

  <!-- INVITE -->
  <g id="invite-command">

    <text class="command" x="70" y="60">INVITE</text>

    <line class="arrow" x1="200" y1="60" x2="360" y2="60"/>
    <text class="label" x="230" y="40">send invitation</text>

    <rect class="box" x="380" y="20" width="150" height="80"/>
    <text class="label" x="420" y="65">Students</text>

  </g>

  <!-- DISINVITE -->
  <g id="disinvite-command" transform="translate(0,90)">

    <text class="command" x="70" y="65">DISINVITE</text>

    <line class="arrow" x1="220" y1="60" x2="360" y2="60"/>
    <text class="label" x="230" y="40">cancel invitation</text>

    <rect class="box" x="380" y="30" width="150" height="80"/>
    <text class="label" x="420" y="75">Students</text>

  </g>

</g>

<!-- ASSIGN / UNASSIGN -->

<g id="assign-unassign" transform="translate(0,1600)">

  <rect class="box" x="40" y="0" width="1120" height="265"/>

  <!-- ASSIGN -->
  <g id="assign-command">

    <text class="command" x="70" y="70">ASSIGN &lt;repo&gt;</text>

    <!-- source repo -->
    <rect class="box" x="330" y="40" width="140" height="50"/>
    <text class="label" x="360" y="65">Repo</text>

    <!-- arrow -->
    <line class="arrow" x1="475" y1="65" x2="730" y2="65"/>
    <text class="label" x="560" y="45">add to team</text>

    <!-- target team -->
    <rect class="box" x="740" y="15" width="220" height="110"/>
    <text class="label" x="770" y="40">Team</text>

    <!-- nested repo (bottom-right) -->
    <rect class="box" x="810" y="65" width="140" height="50"/>
    <text class="label" x="860" y="95">Repo</text>

  </g>

  <!-- UNASSIGN -->
  <g id="unassign-command" transform="translate(0,100)">

    <text class="command" x="70" y="100">UNASSIGN &lt;repo&gt;</text>

    <!-- source team -->
    <rect class="box" x="330" y="40" width="220" height="110"/>
    <text class="label" x="360" y="60">Team</text>

    <!-- nested repo (bottom-right) -->
    <rect class="box" x="400" y="90" width="140" height="50"/>
    <text class="label" x="445" y="120">Repo</text>

    <!-- arrow -->
    <line class="arrow" x1="560" y1="95" x2="730" y2="95"/>
    <text class="label" x="570" y="75">remove from team</text>

    <!-- target team -->
    <rect class="box" x="740" y="40" width="220" height="110"/>
    <text class="label" x="770" y="60">Team</text>

  </g>

</g>

<!-- LOG -->

<g id="log-command" transform="translate(0,1880)">

  <rect class="box" x="40" y="0" width="1120" height="100"/>

  <text class="command" x="70" y="60">LOG</text>

  <rect class="box" x="220" y="10" width="140" height="70"/>
  <text class="label" x="250" y="50">Project</text>

  <line class="arrow" x1="370" y1="45" x2="520" y2="45"/>
  <text class="label" x="420" y="25">save</text>

  <rect class="box" x="540" y="10" width="120" height="70"/>
  <text class="label" x="570" y="50">json</text>

</g>

<!-- STATUS -->

<g id="status-command" transform="translate(0,2000)">

  <rect class="box" x="40" y="0" width="1120" height="180"/>

  <text class="command" x="70" y="60">STATUS</text>

  <line class="arrow" x1="200" y1="50" x2="360" y2="50"/>
  <text class="label" x="210" y="30">get list of team repos</text>

  <rect class="box" x="380" y="20" width="120" height="40"/>
  <text class="label" x="410" y="45">Repo1</text>

  <rect class="box" x="380" y="70" width="120" height="40"/>
  <text class="label" x="410" y="95">Repo2</text>

  <rect class="box" x="380" y="120" width="120" height="40"/>
  <text class="label" x="410" y="145">Repo3</text>

</g>

<!-- DELETE -->

<g id="delete-command" transform="translate(0,2200)">

  <rect class="box" x="40" y="0" width="1120" height="170"/>

  <text class="command" x="70" y="92">DELETE</text>

  <line class="arrow" x1="200" y1="85" x2="360" y2="85"/>
  <text class="label" x="230" y="65">delete?</text>

  <rect class="box" x="380" y="15" width="220" height="140"/>
  <text class="label" x="470" y="92">ORG</text>

</g>

</svg>
